<svg width="82" height="66" viewBox="0 0 82 66" fill="none" xmlns="http://www.w3.org/2000/svg">
<path id="Vector" d="M78.9204 6.87541C78.5688 6.82814 71.7125 6.04149 59.4492 13.6149C53.0257 17.5841 48.6752 23.69 46.2071 27.9807C45.9879 28.3608 45.7856 28.7257 45.5948 29.0756L45.5872 29.0888C44.3607 31.3523 43.7522 32.8973 43.7257 32.9653H43.7238V32.9445C43.72 32.8954 43.7087 32.7706 43.686 32.589C43.6785 32.5266 43.6709 32.4585 43.6615 32.3848C43.5821 31.7343 43.4668 31.1159 43.3175 30.5297C43.3118 30.5033 43.3043 30.4749 43.2967 30.4465C43.0095 29.346 42.5994 28.3664 42.0778 27.5212C42.0759 27.5174 42.0721 27.5136 42.0702 27.5098C41.4919 26.5757 40.7738 25.8061 39.929 25.2217C39.9252 25.218 39.9233 25.2161 39.9196 25.2142C39.5964 24.9929 39.2543 24.7963 38.8953 24.628C38.8934 24.6261 38.8915 24.6261 38.8915 24.6261C37.8728 24.1514 36.7106 23.9018 35.416 23.9018C29.2155 23.9018 26.0481 29.9757 26.0481 34.9282V50.9032C26.0481 54.2049 26.7076 54.931 30.0073 54.931H31.3264V55.4586H16.5478V54.931H17.8669C21.2308 54.931 21.8261 54.2049 21.8261 50.9032V28.062C21.8261 24.8511 21.263 24.1382 18.1353 24.1023C-3.65469 45.5668 0.973551 65.0629 1.18332 65.9063C0.85827 64.9097 -7.29076 38.7593 24.1601 15.0293C58.2681 -10.7051 80.8121 4.30178 81.517 4.78587C80.8045 4.40011 58.0167 -7.57549 26.3826 16.9241C23.5402 19.1252 21.0059 21.3244 18.7457 23.5066H26.0481V30.7018C27.301 26.6759 30.6007 23.0433 36.1436 23.0433C37.493 23.0433 38.7441 23.1908 39.8874 23.4783C41.3445 23.8451 42.6296 24.4408 43.7238 25.2577C43.7238 25.2577 44.0262 24.7187 44.6045 23.8413C46.2883 21.2885 50.3137 15.8595 56.0551 12.4708C68.7001 5.00523 78.4781 6.78842 78.9204 6.87541Z" fill="white"/>
</svg>
